<?xml version="1.0" encoding="UTF-8"?>
<svg version="1.1" xmlns="http://www.w3.org/2000/svg" width="64" height="64">
<path d="M0 0 C0.99 0 1.98 0 3 0 C3.33 0.66 3.66 1.32 4 2 C5.27875 1.95359375 6.5575 1.9071875 7.875 1.859375 C9.58330979 1.82182973 11.29164508 1.78543255 13 1.75 C13.83917969 1.71648438 14.67835937 1.68296875 15.54296875 1.6484375 C21.5551539 1.55522533 25.99129686 2.5846097 31 6 C35.43394662 10.43394662 39 15.54590356 39 22 C37.68 22 36.36 22 35 22 C35 23.65 35 25.3 35 27 C36.32 27.33 37.64 27.66 39 28 C40.32533652 33.90377179 39.79356087 36.82673913 37 42 C36.01 42.495 36.01 42.495 35 43 C34.17803708 44.55740343 33.41567171 46.1465991 32.6875 47.75 C30.63086657 51.97151072 28.66201822 54.9632044 25 58 C24.13375 58.763125 23.2675 59.52625 22.375 60.3125 C17.51046356 62.74476822 13.33250115 62.97851017 8 62 C1.27254056 58.94206389 -2.30374628 53.12364423 -6 47 C-6.721875 45.948125 -7.44375 44.89625 -8.1875 43.8125 C-10.02520465 40.96088934 -11.54242348 38.06091068 -13 35 C-13.721875 35.825 -14.44375 36.65 -15.1875 37.5 C-18 40 -18 40 -20.75 40.375 C-23 40 -23 40 -24 39 C-24.4375 36.83203125 -24.4375 36.83203125 -24 34 C-22.25383699 31.62772578 -20.1556837 29.68539154 -18 27.6875 C-17.42765625 27.13771484 -16.8553125 26.58792969 -16.265625 26.02148438 C-14.85476051 24.6694059 -13.42879488 23.33311665 -12 22 C-12.99 21.34 -13.98 20.68 -15 20 C-13.77065985 16.31197956 -12.06140622 15.27643027 -9 13 C-9.495 12.236875 -9.99 11.47375 -10.5 10.6875 C-12 8 -12 8 -12 5 C-9.03 5.33 -6.06 5.66 -3 6 C-2.01 4.02 -1.02 2.04 0 0 Z " fill="#9170A0" transform="translate(24,0)"/>
<path d="M0 0 C7.92 0 15.84 0 24 0 C25.20272819 2.40545638 25.10071472 3.94996953 25.0625 6.625 C25.05347656 7.44226563 25.04445312 8.25953125 25.03515625 9.1015625 C25.02355469 9.72804688 25.01195312 10.35453125 25 11 C25.66 11 26.32 11 27 11 C27 10.34 27 9.68 27 9 C27.66 9 28.32 9 29 9 C28.91291331 10.45945288 28.80473093 11.91765868 28.6875 13.375 C28.60048828 14.59316406 28.60048828 14.59316406 28.51171875 15.8359375 C28 18 28 18 25 20 C23.99602234 21.90390161 23.06683765 23.84791918 22.1875 25.8125 C19.70515108 30.9558284 17.76511559 33.89231592 13 37 C12.360625 37.433125 11.72125 37.86625 11.0625 38.3125 C7.86437065 39.37854312 5.34894691 39.34644278 2 39 C-5.31925924 35.26568406 -9.72320076 29.15490466 -13.05078125 21.83984375 C-14.03259625 19.74491193 -14.03259625 19.74491193 -16.3125 17.4375 C-18 15 -18 15 -17.9375 11.3125 C-17 8 -17 8 -14 6 C-14 6.99 -14 7.98 -14 9 C-11.03 6.525 -11.03 6.525 -8 4 C-5.08482708 5.07401108 -3.22189824 5.77810176 -1 8 C-0.67 5.36 -0.34 2.72 0 0 Z " fill="#F6EADB" transform="translate(32,21)"/>
<path d="M0 0 C4.65026951 2.03327684 7.92372187 5.82629448 10.6875 10 C11.37890625 12.25390625 11.37890625 12.25390625 11.6875 14 C6.32310356 16.68219822 2.67743047 17.3152595 -3.3125 17 C-3.3125 16.34 -3.3125 15.68 -3.3125 15 C-4.034375 15.103125 -4.75625 15.20625 -5.5 15.3125 C-9.46426326 14.8720263 -10.77785287 12.95708831 -13.3125 10 C-13.6425 9.34 -13.9725 8.68 -14.3125 8 C-13.37803465 5.96855359 -12.38025224 3.96466413 -11.3125 2 C-13.9525 2.33 -16.5925 2.66 -19.3125 3 C-18.9825 2.01 -18.6525 1.02 -18.3125 0 C-13.22813359 -2.54218321 -5.33235247 -1.63427698 0 0 Z " fill="#C499A6" transform="translate(48.3125,5)"/>
<path d="M0 0 C2.64386319 -0.33577668 4.98178637 -0.47505157 7.625 -0.4375 C8.71325073 -0.42614014 8.71325073 -0.42614014 9.82348633 -0.41455078 C17.22699476 -0.18659693 21.55317919 1.55317919 26.8125 6.8125 C29.67587133 10.98484109 32 14.80839659 32 20 C30.68 20 29.36 20 28 20 C28 21.65 28 23.3 28 25 C29.32 25.33 30.64 25.66 32 26 C33.32533652 31.90377179 32.79356087 34.82673913 30 40 C29.01 40.495 29.01 40.495 28 41 C27.17803708 42.55740343 26.41567171 44.1465991 25.6875 45.75 C22.43417149 52.42788483 18.17563749 56.12227413 12 60 C11.67 59.34 11.34 58.68 11 58 C12.70741576 56.20272025 14.35185484 54.75024075 16.3828125 53.30859375 C19.46729755 50.58780171 20.85895281 47.98192167 22.6875 44.3125 C25.80549369 38.09725316 25.80549369 38.09725316 28 37 C28.68729254 34.88153715 28.68729254 34.88153715 29.125 32.4375 C29.29257812 31.61121094 29.46015625 30.78492187 29.6328125 29.93359375 C29.75398438 29.29550781 29.87515625 28.65742188 30 28 C29.34 28 28.68 28 28 28 C28 28.66 28 29.32 28 30 C27.34 30 26.68 30 26 30 C25.67 26.04 25.34 22.08 25 18 C25.99 17.34 26.98 16.68 28 16 C25.03808592 10.29557289 22.50684961 6.44067945 16.328125 3.90234375 C12.52952181 2.87244077 9.02217005 2.77681548 5.125 2.875 C4.09246094 2.88853516 4.09246094 2.88853516 3.0390625 2.90234375 C1.35922162 2.92567487 -0.32043746 2.96153674 -2 3 C-1.34 2.01 -0.68 1.02 0 0 Z " fill="#916DA1" transform="translate(31,2)"/>
<path d="M0 0 C2 3 2 3 3 5 C4.98 5 6.96 5 9 5 C8.67 6.98 8.34 8.96 8 11 C8.99 11.66 9.98 12.32 11 13 C11 13.66 11 14.32 11 15 C9.02 15 7.04 15 5 15 C5 16.98 5 18.96 5 21 C4.0925 20.608125 3.185 20.21625 2.25 19.8125 C-0.96052929 18.60932055 -0.96052929 18.60932055 -3.375 20.375 C-3.91125 20.91125 -4.4475 21.4475 -5 22 C-3.88408263 19.39619281 -2.93328633 17.93900464 -0.8125 16 C-0.214375 15.34 0.38375 14.68 1 14 C0.86358623 11.78141747 0.86358623 11.78141747 0 10 C-3.79588866 10.54226981 -5.47211993 12.20127563 -8 15 C-8.99 14.67 -9.98 14.34 -11 14 C-9.68 13.01 -8.36 12.02 -7 11 C-7.33 9.02 -7.66 7.04 -8 5 C-5.03 5.495 -5.03 5.495 -2 6 C-1.34 4.02 -0.68 2.04 0 0 Z " fill="#F0DAAC" transform="translate(25,4)"/>
<path d="M0 0 C3.29009674 0.37601106 4.76614617 0.78563399 7.25 3.0625 C10.62097215 5.43750311 12.67790331 5.62462334 16.72265625 5.4765625 C19.97223421 4.7965479 21.97184119 3.20343358 24.39453125 0.99609375 C26 0 26 0 28.19921875 0.34765625 C28.79347656 0.56292969 29.38773438 0.77820312 30 1 C26.50700099 5.52108028 23.5588685 9.07141297 18 11 C13.75769113 11.53028861 11.65357282 11.35292932 7.875 9.3125 C5.02564417 7.02062683 2.43896884 4.72590635 0 2 C0 1.34 0 0.68 0 0 Z " fill="#EBD4BD" transform="translate(23,49)"/>
<path d="M0 0 C4.65026951 2.03327684 7.92372187 5.82629448 10.6875 10 C11.37890625 12.25390625 11.37890625 12.25390625 11.6875 14 C9.375 13.875 9.375 13.875 6.6875 13 C5.6224985 11.03384339 4.61916826 9.03273074 3.6875 7 C2.6975 6.67 1.7075 6.34 0.6875 6 C0.6875 5.01 0.6875 4.02 0.6875 3 C-0.9625 3.33 -2.6125 3.66 -4.3125 4 C-4.3125 3.01 -4.3125 2.02 -4.3125 1 C-4.9725 1 -5.6325 1 -6.3125 1 C-6.3125 1.66 -6.3125 2.32 -6.3125 3 C-7.6325 3 -8.9525 3 -10.3125 3 C-10.3125 2.34 -10.3125 1.68 -10.3125 1 C-13.2825 1.66 -16.2525 2.32 -19.3125 3 C-18.9825 2.01 -18.6525 1.02 -18.3125 0 C-13.22813359 -2.54218321 -5.33235247 -1.63427698 0 0 Z " fill="#D7AEB8" transform="translate(48.3125,5)"/>
<path d="M0 0 C0.86625 0.37125 0.86625 0.37125 1.75 0.75 C1.75 1.41 1.75 2.07 1.75 2.75 C3.07 3.08 4.39 3.41 5.75 3.75 C5.20925627 7.53520613 3.67427254 9.34177555 0.75 11.75 C-0.24 11.75 -1.23 11.75 -2.25 11.75 C-6.25 7.52142857 -6.25 7.52142857 -6.25 3.75 C-3.06818182 -0.34090909 -3.06818182 -0.34090909 0 0 Z " fill="#9C79A2" transform="translate(7.25,6.25)"/>
<path d="M0 0 C-1.32120828 2.93230193 -2.74638197 4.98664899 -5.0390625 7.234375 C-5.90917969 8.09482422 -5.90917969 8.09482422 -6.796875 8.97265625 C-7.40015625 9.55917969 -8.0034375 10.14570313 -8.625 10.75 C-9.23601563 11.35199219 -9.84703125 11.95398438 -10.4765625 12.57421875 C-11.97988624 14.05405305 -13.48934856 15.52764676 -15 17 C-15.66 16.34 -16.32 15.68 -17 15 C-14.54976242 12.49195282 -12.08852402 9.9949924 -9.625 7.5 C-8.57699219 6.42685547 -8.57699219 6.42685547 -7.5078125 5.33203125 C-6.8375 4.65527344 -6.1671875 3.97851562 -5.4765625 3.28125 C-4.85861816 2.65283203 -4.24067383 2.02441406 -3.60400391 1.37695312 C-2 0 -2 0 0 0 Z " fill="#8B8D98" transform="translate(19,21)"/>
<path d="M0 0 C1.32 0 2.64 0 4 0 C4 0.66 4 1.32 4 2 C4.66 2 5.32 2 6 2 C6 3.32 6 4.64 6 6 C5.34 6 4.68 6 4 6 C4 6.66 4 7.32 4 8 C2.68 8 1.36 8 0 8 C0 7.34 0 6.68 0 6 C-0.66 6 -1.32 6 -2 6 C-2 4.68 -2 3.36 -2 2 C-1.34 2 -0.68 2 0 2 C0 1.34 0 0.68 0 0 Z " fill="#926F9E" transform="translate(2,19)"/>
<path d="M0 0 C0.598125 0.226875 1.19625 0.45375 1.8125 0.6875 C2.1425 2.0075 2.4725 3.3275 2.8125 4.6875 C1.1625 6.0075 -0.4875 7.3275 -2.1875 8.6875 C-4.1875 7.6875 -4.1875 7.6875 -5 5.3125 C-5.1875 2.6875 -5.1875 2.6875 -4 0.8125 C-2.1875 -0.3125 -2.1875 -0.3125 0 0 Z " fill="#A598BB" transform="translate(24.1875,13.3125)"/>
<path d="M0 0 C0.66 0.33 1.32 0.66 2 1 C2 4.3 2 7.6 2 11 C1.0925 10.38125 0.185 9.7625 -0.75 9.125 C-3.14948817 7.55610389 -5.40961612 6.19556179 -8 5 C-6.68 4.34 -5.36 3.68 -4 3 C-2.68 3.99 -1.36 4.98 0 6 C0 4.02 0 2.04 0 0 Z " fill="#9E80A3" transform="translate(30,19)"/>
<path d="M0 0 C0.33 0 0.66 0 1 0 C1.98248524 4.0527516 2.08159574 7.83861737 2 12 C-0.0625 10.4375 -0.0625 10.4375 -2 8 C-1.67857143 1.67857143 -1.67857143 1.67857143 0 0 Z " fill="#E4CCBB" transform="translate(16,28)"/>
<path d="M0 0 C0.66 0 1.32 0 2 0 C1.88637738 1.4800841 1.75877092 2.95910074 1.625 4.4375 C1.52058594 5.67306641 1.52058594 5.67306641 1.4140625 6.93359375 C1.27742188 7.61550781 1.14078125 8.29742187 1 9 C0.01 9.495 0.01 9.495 -1 10 C-1.125 2.25 -1.125 2.25 0 0 Z " fill="#E9D2BC" transform="translate(59,30)"/>
<path d="M0 0 C0 0.33 0 0.66 0 1 C-2.97 1.66 -5.94 2.32 -9 3 C-8.67 2.01 -8.34 1.02 -8 0 C-5.13822943 -1.43088528 -3.06624227 -0.59991697 0 0 Z " fill="#CCA4B5" transform="translate(38,5)"/>
</svg>
