<?xml version="1.0" encoding="UTF-8"?>
<svg version="1.1" xmlns="http://www.w3.org/2000/svg" width="64" height="64">
<path d="M0 0 C0.83426514 -0.00630432 1.66853027 -0.01260864 2.52807617 -0.019104 C3.43017822 -0.01505554 4.33228027 -0.01100708 5.26171875 -0.00683594 C6.64870972 -0.00970612 6.64870972 -0.00970612 8.0637207 -0.01263428 C10.02067334 -0.0139966 11.97763499 -0.0102969 13.93457031 -0.00195312 C16.93705465 0.00874572 19.93894062 -0.00184685 22.94140625 -0.01464844 C24.83984508 -0.01332685 26.73828353 -0.01076448 28.63671875 -0.00683594 C29.5388208 -0.0108844 30.44092285 -0.01493286 31.37036133 -0.019104 C32.62175903 -0.00964752 32.62175903 -0.00964752 33.8984375 0 C34.63408936 0.00159119 35.36974121 0.00318237 36.12768555 0.00482178 C37.94921875 0.25878906 37.94921875 0.25878906 39.94921875 2.25878906 C40.20318604 4.15625 40.20318604 4.15625 40.20800781 6.49316406 C40.21431213 7.3674707 40.22061646 8.24177734 40.22711182 9.14257812 C40.22306335 10.08842773 40.21901489 11.03427734 40.21484375 12.00878906 C40.21771393 13.46236816 40.21771393 13.46236816 40.22064209 14.9453125 C40.22200454 16.99642191 40.21830393 19.04753992 40.20996094 21.09863281 C40.19926234 24.24596445 40.20985429 27.39272526 40.22265625 30.54003906 C40.22133467 32.52962366 40.2187723 34.5192079 40.21484375 36.50878906 C40.21889221 37.45463867 40.22294067 38.40048828 40.22711182 39.375 C40.2208075 40.24930664 40.21450317 41.12361328 40.20800781 42.02441406 C40.20641663 42.7955957 40.20482544 43.56677734 40.20318604 44.36132812 C39.94921875 46.25878906 39.94921875 46.25878906 37.94921875 48.25878906 C36.12768555 48.51275635 36.12768555 48.51275635 33.8984375 48.51757812 C33.06417236 48.52388245 32.22990723 48.53018677 31.37036133 48.53668213 C30.46825928 48.53263367 29.56615723 48.52858521 28.63671875 48.52441406 C27.24972778 48.52728424 27.24972778 48.52728424 25.8347168 48.5302124 C23.87776416 48.53157472 21.92080251 48.52787502 19.96386719 48.51953125 C16.96138285 48.50883241 13.95949688 48.51942497 10.95703125 48.53222656 C9.05859242 48.53090498 7.16015397 48.5283426 5.26171875 48.52441406 C4.3596167 48.52846252 3.45751465 48.53251099 2.52807617 48.53668213 C1.27667847 48.52722565 1.27667847 48.52722565 0 48.51757812 C-0.73565186 48.51598694 -1.47130371 48.51439575 -2.22924805 48.51275635 C-4.05078125 48.25878906 -4.05078125 48.25878906 -6.05078125 46.25878906 C-6.30474854 44.36132812 -6.30474854 44.36132812 -6.30957031 42.02441406 C-6.31587463 41.15010742 -6.32217896 40.27580078 -6.32867432 39.375 C-6.32462585 38.42915039 -6.32057739 37.48330078 -6.31640625 36.50878906 C-6.3183197 35.53973633 -6.32023315 34.57068359 -6.32220459 33.57226562 C-6.32356704 31.52115622 -6.31986643 29.47003821 -6.31152344 27.41894531 C-6.30082484 24.27161367 -6.31141679 21.12485286 -6.32421875 17.97753906 C-6.32289717 15.98795446 -6.3203348 13.99837022 -6.31640625 12.00878906 C-6.32045471 11.06293945 -6.32450317 10.11708984 -6.32867432 9.14257812 C-6.32237 8.26827148 -6.31606567 7.39396484 -6.30957031 6.49316406 C-6.30797913 5.72198242 -6.30638794 4.95080078 -6.30474854 4.15625 C-5.77621721 0.20744401 -3.42516996 0.00740851 0 0 Z M-2.75137329 3.54672241 C-5.00859326 6.52077764 -4.47624863 10.16986678 -4.44921875 13.75878906 C-4.45208893 14.59087891 -4.45495911 15.42296875 -4.45791626 16.28027344 C-4.45995687 18.0387439 -4.45442718 19.79723707 -4.44189453 21.55566406 C-4.42584027 24.2488882 -4.4417427 26.94061166 -4.4609375 29.63378906 C-4.45895507 31.34212571 -4.45511139 33.05046143 -4.44921875 34.75878906 C-4.45529144 35.56509766 -4.46136414 36.37140625 -4.46762085 37.20214844 C-4.51690348 41.35516539 -4.51690348 41.35516539 -2.75137329 44.97085571 C0.12844413 47.15186845 3.54089055 46.68486668 7.01171875 46.65722656 C7.7994165 46.66009674 8.58711426 46.66296692 9.39868164 46.66592407 C11.0629956 46.66796428 12.72733356 46.66243739 14.39160156 46.64990234 C16.93999822 46.63384715 19.48680896 46.6497515 22.03515625 46.66894531 C23.65234725 46.66696287 25.26953727 46.66311918 26.88671875 46.65722656 C28.0305603 46.6663356 28.0305603 46.6663356 29.19750977 46.67562866 C33.18572321 46.69810388 33.18572321 46.69810388 36.64981079 44.97085571 C38.90703076 41.99680048 38.37468613 38.34771135 38.34765625 34.75878906 C38.35196152 33.5106543 38.35196152 33.5106543 38.35635376 32.23730469 C38.35839437 30.47883422 38.35286468 28.72034105 38.34033203 26.96191406 C38.32427777 24.26868993 38.3401802 21.57696646 38.359375 18.88378906 C38.35739257 17.17545241 38.35354889 15.4671167 38.34765625 13.75878906 C38.35372894 12.95248047 38.35980164 12.14617188 38.36605835 11.31542969 C38.41534098 7.16241274 38.41534098 7.16241274 36.64981079 3.54672241 C33.76999337 1.36570968 30.35754695 1.83271145 26.88671875 1.86035156 C26.099021 1.85748138 25.31132324 1.85461121 24.49975586 1.85165405 C22.8354419 1.84961385 21.17110394 1.85514074 19.50683594 1.86767578 C16.95843928 1.88373097 14.41162854 1.86782662 11.86328125 1.84863281 C10.24609025 1.85061525 8.62890023 1.85445895 7.01171875 1.86035156 C6.24915771 1.85427887 5.48659668 1.84820618 4.70092773 1.84194946 C0.71271429 1.81947424 0.71271429 1.81947424 -2.75137329 3.54672241 Z " fill="#6F47FF" transform="translate(15.05078125,7.7412109375)"/>
<path d="M0 0 C2.64 0 5.28 0 8 0 C8 3.3 8 6.6 8 10 C7.01 10 6.02 10 5 10 C5 9.01 5 8.02 5 7 C4.34 7 3.68 7 3 7 C3 7.99 3 8.98 3 10 C2.01 10 1.02 10 0 10 C0 6.7 0 3.4 0 0 Z " fill="#BFB4FF" transform="translate(33,27)"/>
<path d="M0 0 C0.66 0 1.32 0 2 0 C2 1.32 2 2.64 2 4 C2.66 4 3.32 4 4 4 C4 2.68 4 1.36 4 0 C4.66 0 5.32 0 6 0 C6 3.3 6 6.6 6 10 C5.34 10 4.68 10 4 10 C4 8.68 4 7.36 4 6 C3.34 6 2.68 6 2 6 C2 7.32 2 8.64 2 10 C1.34 10 0.68 10 0 10 C0 6.7 0 3.4 0 0 Z " fill="#A9B8FF" transform="translate(17,27)"/>
<path d="M0 0 C2.64 0 5.28 0 8 0 C8 1.32 8 2.64 8 4 C5.36 4 2.72 4 0 4 C0 2.68 0 1.36 0 0 Z " fill="#85C0FF" transform="translate(33,27)"/>
<path d="M0 0 C0.66 0 1.32 0 2 0 C2.33 2.31 2.66 4.62 3 7 C3.99 7.33 4.98 7.66 6 8 C6 8.66 6 9.32 6 10 C4.02 10 2.04 10 0 10 C0 6.7 0 3.4 0 0 Z " fill="#B7B5FF" transform="translate(43,27)"/>
<path d="M0 0 C1.98 0 3.96 0 6 0 C6 0.66 6 1.32 6 2 C5.34 2 4.68 2 4 2 C4 4.64 4 7.28 4 10 C3.34 10 2.68 10 2 10 C2 7.36 2 4.72 2 2 C1.34 2 0.68 2 0 2 C0 1.34 0 0.68 0 0 Z " fill="#9BBCFF" transform="translate(25,27)"/>
</svg>
