<?xml version="1.0" encoding="UTF-8"?>
<svg version="1.1" xmlns="http://www.w3.org/2000/svg" width="48" height="48">
<path d="M0 0 C12.54 0 25.08 0 38 0 C38 3.96 38 7.92 38 12 C36.68 12 35.36 12 34 12 C34 12.66 34 13.32 34 14 C35.32 14 36.64 14 38 14 C38 17.96 38 21.92 38 26 C36.68 26 35.36 26 34 26 C34 26.66 34 27.32 34 28 C35.32 28 36.64 28 38 28 C38 31.96 38 35.92 38 40 C25.46 40 12.92 40 0 40 C0 36.04 0 32.08 0 28 C1.32 28 2.64 28 4 28 C4 27.34 4 26.68 4 26 C2.68 26 1.36 26 0 26 C0 22.04 0 18.08 0 14 C1.32 14 2.64 14 4 14 C4 13.34 4 12.68 4 12 C2.68 12 1.36 12 0 12 C0 8.04 0 4.08 0 0 Z " fill="#D0C3E8" transform="translate(5,4)"/>
<path d="M0 0 C2.625 0.375 2.625 0.375 5 1 C5 4.3 5 7.6 5 11 C-0.875 9.125 -0.875 9.125 -2 8 C-2.1875 5.0625 -2.1875 5.0625 -2 2 C-1.34 1.34 -0.68 0.68 0 0 Z " fill="#603FAF" transform="translate(23,19)"/>
<path d="M0 0 C1.65 0.33 3.3 0.66 5 1 C5 1.66 5 2.32 5 3 C3.68 2.67 2.36 2.34 1 2 C1 2.66 1 3.32 1 4 C2.32 4.66 3.64 5.32 5 6 C4.67 7.32 4.34 8.64 4 10 C2.35 9.67 0.7 9.34 -1 9 C-1 8.34 -1 7.68 -1 7 C0.32 7.33 1.64 7.66 3 8 C3 7.34 3 6.68 3 6 C1.68 5.67 0.36 5.34 -1 5 C-0.67 3.35 -0.34 1.7 0 0 Z " fill="#603FAF" transform="translate(15,19)"/>
<path d="M0 0 C0.66 0 1.32 0 2 0 C2 2.64 2 5.28 2 8 C2.99 8 3.98 8 5 8 C5 8.66 5 9.32 5 10 C3.35 10 1.7 10 0 10 C0 6.7 0 3.4 0 0 Z " fill="#5D3CAE" transform="translate(30,19)"/>
<path d="M0 0 C0.33 0 0.66 0 1 0 C1 3.3 1 6.6 1 10 C0.01 10 -0.98 10 -2 10 C-1.34 6.7 -0.68 3.4 0 0 Z " fill="#B8A6DC" transform="translate(29,19)"/>
<path d="M0 0 C0.99 0 1.98 0 3 0 C3 1.98 3 3.96 3 6 C2.01 6 1.02 6 0 6 C0 4.02 0 2.04 0 0 Z " fill="#C3B3E2" transform="translate(23,21)"/>
</svg>
